HIERARCHY
ROOT Hips
{
 OFFSET 0.000000 0.000000 0.000000
 CHANNELS 6 Xposition Yposition Zposition Yrotation Xrotation Zrotation
 JOINT Chest
 {
  OFFSET 0.000000 9.585900 0.002600
  CHANNELS 3 Yrotation Xrotation Zrotation
  JOINT Chest2
  {
   OFFSET 0.000000 9.601200 -0.005300
   CHANNELS 3 Yrotation Xrotation Zrotation
   JOINT Chest3
   {
    OFFSET 0.000000 9.561800 0.000000
    CHANNELS 3 Yrotation Xrotation Zrotation
    JOINT Chest4
    {
     OFFSET 0.000000 9.552100 0.000000
     CHANNELS 3 Yrotation Xrotation Zrotation
     JOINT Neck
     {
      OFFSET 0.000000 14.453000 0.000000
      CHANNELS 3 Yrotation Xrotation Zrotation
      JOINT Head
      {
       OFFSET 0.000000 8.936500 -0.011300
       CHANNELS 3 Yrotation Xrotation Zrotation
       End Site
       {
        OFFSET 0.000000 17.073600 -0.006000
       }
      }
     }
     JOINT RightCollar
     {
      OFFSET -2.921100 9.558500 0.000000
      CHANNELS 3 Yrotation Xrotation Zrotation
      JOINT RightShoulder
      {
       OFFSET -13.519700 0.000000 0.000000
       CHANNELS 3 Yrotation Xrotation Zrotation
       JOINT RightElbow
       {
        OFFSET 0.000000 -29.696600 0.000000
        CHANNELS 3 Yrotation Xrotation Zrotation
        JOINT RightWrist
        {
         OFFSET 0.000000 -24.004700 0.000000
         CHANNELS 3 Yrotation Xrotation Zrotation
         End Site
         {
          OFFSET 0.000000 -17.728500 0.000000
         }
        }
       }
      }
     }
     JOINT LeftCollar
     {
      OFFSET 2.921100 9.558500 0.000000
      CHANNELS 3 Yrotation Xrotation Zrotation
      JOINT LeftShoulder
      {
       OFFSET 13.519700 0.000000 0.000000
       CHANNELS 3 Yrotation Xrotation Zrotation
       JOINT LeftElbow
       {
        OFFSET 0.000000 -29.696600 0.000000
        CHANNELS 3 Yrotation Xrotation Zrotation
        JOINT LeftWrist
        {
         OFFSET 0.000000 -24.004700 0.000000
         CHANNELS 3 Yrotation Xrotation Zrotation
         End Site
         {
          OFFSET 0.000000 -17.728500 0.000000
         }
        }
       }
      }
     }
    }
   }
  }
 }
 JOINT RightHip
 {
  OFFSET -7.771700 -0.012900 -0.001300
  CHANNELS 3 Yrotation Xrotation Zrotation
  JOINT RightKnee
  {
   OFFSET 0.000000 -40.869800 0.001200
   CHANNELS 3 Yrotation Xrotation Zrotation
   JOINT RightAnkle
   {
    OFFSET 0.000000 -39.717900 0.002100
    CHANNELS 3 Yrotation Xrotation Zrotation
    JOINT RightToe
    {
     OFFSET 0.000000 -4.965400 11.033500
     CHANNELS 3 Yrotation Xrotation Zrotation
     End Site
     {
      OFFSET 0.000000 -1.423100 5.872300
     }
    }
   }
  }
 }
 JOINT LeftHip
 {
  OFFSET 7.771700 -0.012900 -0.001300
  CHANNELS 3 Yrotation Xrotation Zrotation
  JOINT LeftKnee
  {
   OFFSET 0.000000 -40.869800 0.001200
   CHANNELS 3 Yrotation Xrotation Zrotation
   JOINT LeftAnkle
   {
    OFFSET 0.000000 -39.717900 0.002100
    CHANNELS 3 Yrotation Xrotation Zrotation
    JOINT LeftToe
    {
     OFFSET 0.000000 -4.965400 11.033500
     CHANNELS 3 Yrotation Xrotation Zrotation
     End Site
     {
      OFFSET 0.000000 -1.423100 5.872300
     }
    }
   }
  }
 }
}
MOTION
Frames: 13
Frame Time: 0.008333
-14.464662 57.339202 77.238038 174.107953 -31.992994 -1.033785 3.887548 20.084343 5.861391 0.408368 2.704927 0.473082 0.678836 4.414460 0.783157 3.145725 17.513755 3.522233 0.419426 9.333826 -2.140955 1.968499 -18.456509 -4.482161 1.375473 -1.027015 -0.817782 1.408956 -25.339749 -11.343127 172.709126 -51.764504 -165.918774 9.271156 -17.914935 -53.685853 -9.259889 -2.367859 -1.761712 30.919508 -17.499596 -2.835043 -174.331493 -45.736480 174.546666 -3.739848 -21.443049 35.641893 8.615629 -39.735712 -2.247469 0.749735 64.551750 4.350469 4.723280 8.187629 3.411450 -0.174909 0.343457 0.076659 -10.339001 -46.244204 4.681650 28.525595 65.274586 34.339370 -12.759408 31.394252 -6.399359 0.155216 -13.783133 -7.758288
-14.487912 57.334940 77.236514 174.127939 -31.930203 -0.993269 3.975250 20.059227 5.839353 0.411628 2.710966 0.472332 0.684144 4.423731 0.781914 3.163296 17.529286 3.515722 0.411843 9.202700 -2.142452 1.887567 -18.680273 -4.432332 1.340801 -1.030230 -0.824719 1.074650 -25.315933 -11.291192 172.527844 -51.281240 -165.897405 9.250591 -17.911938 -53.618566 -9.265235 -2.346575 -1.732119 31.815668 -17.344590 -2.762442 -174.573623 -45.344219 174.886346 -3.712327 -21.434370 35.635932 8.740862 -39.850636 -2.315658 0.683727 64.626426 4.244613 4.626705 8.326613 3.406783 -0.066604 0.185542 0.085477 -10.227265 -46.309719 4.625304 28.435221 65.283016 34.219462 -12.785795 31.319237 -6.383764 0.159375 -13.721041 -7.700247
-14.519213 57.336630 77.224268 174.208898 -31.932526 -0.935971 3.993796 20.100557 5.769006 0.414696 2.716158 0.471574 0.689174 4.431734 0.780575 3.180036 17.542514 3.509326 0.403520 9.072557 -2.144031 1.806526 -18.898047 -4.383541 1.287303 -1.040325 -0.818672 0.762712 -25.271330 -11.251766 172.354749 -50.801286 -165.874906 9.242857 -17.911958 -53.573122 -9.265077 -2.311513 -1.703030 32.698395 -17.195023 -2.679405 -174.783598 -44.954399 175.174815 -3.682162 -21.425701 35.619357 8.908241 -39.850022 -2.466399 0.549409 64.700585 4.077280 4.625037 8.260329 3.457650 -0.097832 0.185430 0.146444 -10.094504 -46.320399 4.482464 28.451202 65.272492 34.149482 -12.737060 31.265897 -6.215667 0.084649 -13.673457 -7.683659
-14.548529 57.337723 77.213211 174.297413 -31.925677 -0.900241 4.008870 20.129080 5.715105 0.417620 2.720416 0.470622 0.693860 4.438298 0.779045 3.196055 17.553229 3.502495 0.338069 8.978322 -2.105136 1.798250 -19.143012 -4.388695 1.235124 -1.041039 -0.815056 0.452904 -25.221688 -11.211818 172.159525 -50.319718 -165.837290 9.234439 -17.906780 -53.541141 -9.259175 -2.262956 -1.674432 33.575426 -17.057651 -2.582425 -174.967677 -44.565232 175.415636 -3.651486 -21.416019 35.589368 9.008708 -39.858206 -2.577174 0.464177 64.767944 3.946827 4.612046 8.196987 3.507265 -0.100873 0.186768 0.157386 -10.011062 -46.338409 4.365776 28.485735 65.254029 34.116383 -12.719598 31.231089 -6.098385 0.027309 -13.647080 -7.662179
-14.567076 57.337909 77.204862 174.394965 -31.905913 -0.939025 4.037374 20.136837 5.732214 0.420586 2.723403 0.469457 0.698534 4.442976 0.777284 3.212614 17.560551 3.495489 0.328176 8.853188 -2.107098 1.718634 -19.343801 -4.340235 1.184541 -1.032271 -0.812754 0.149616 -25.165531 -11.172351 171.931193 -49.829746 -165.782109 9.223523 -17.886590 -53.509735 -9.246699 -2.203698 -1.647501 34.450329 -16.934868 -2.466401 -175.124526 -44.176008 175.622229 -3.629366 -21.402146 35.552275 9.021986 -39.880047 -2.580714 0.378877 64.812195 3.817398 4.586221 8.151773 3.569232 -0.072077 0.183053 0.097214 -9.988126 -46.359791 4.345052 28.376338 65.263439 34.010852 -12.806375 31.185252 -6.147090 0.075330 -13.620390 -7.597939
-14.584298 57.337735 77.196944 174.493147 -31.882322 -0.988962 4.066367 20.134740 5.758837 0.423540 2.724977 0.468336 0.703261 4.445450 0.775443 3.230007 17.563859 3.489338 0.316457 8.732162 -2.110246 1.636449 -19.534785 -4.290721 1.133151 -1.011408 -0.811072 -0.143982 -25.102292 -11.131943 171.666775 -49.321056 -165.709266 9.218347 -17.846615 -53.471999 -9.224427 -2.134340 -1.620417 35.320369 -16.824717 -2.333973 -175.237554 -43.783736 175.798065 -3.615611 -21.384418 35.512452 8.984167 -39.907273 -2.550376 0.333957 64.854068 3.717409 4.565507 8.107937 3.615904 -0.073131 0.181500 0.073696 -9.954273 -46.384799 4.338696 28.225620 65.278354 33.874601 -12.927855 31.142239 -6.219569 0.152286 -13.599498 -7.525239
-14.620157 57.336997 77.187046 174.588748 -31.857441 -0.926695 4.054906 20.134004 5.666349 0.426335 2.725476 0.467192 0.707861 4.446114 0.773540 3.247243 17.564055 3.483447 0.284756 8.626811 -2.099105 1.573781 -19.732030 -4.258133 1.080351 -0.979225 -0.811329 -0.430998 -25.033119 -11.088035 171.366157 -48.787031 -165.623633 9.221382 -17.793560 -53.426638 -9.187591 -2.059533 -1.589994 36.182489 -16.724339 -2.192036 -175.296375 -43.383143 175.938055 -3.606478 -21.366869 35.474519 9.104410 -39.936794 -2.690625 0.207043 64.940096 3.555183 4.572863 8.029397 3.640706 -0.105857 0.188873 0.118550 -9.828313 -46.430557 4.186171 28.328072 65.227936 33.875486 -12.942148 31.166429 -6.039268 0.096455 -13.601989 -7.528104
-14.648619 57.335747 77.178216 174.670570 -31.829247 -0.901709 4.071867 20.123875 5.621903 0.429058 2.724831 0.465792 0.712323 4.445038 0.771363 3.264356 17.561217 3.476816 0.250202 8.523165 -2.086574 1.504652 -19.926181 -4.221255 1.023898 -0.937019 -0.813052 -0.723506 -24.958862 -11.040035 171.040543 -48.219410 -165.532221 9.234915 -17.737651 -53.378564 -9.135896 -1.986868 -1.554044 37.042661 -16.630370 -2.048821 -175.319448 -42.968036 176.050488 -3.603064 -21.350951 35.443242 9.202261 -39.964456 -2.804323 0.119469 64.997324 3.421632 4.854721 7.950594 3.750667 -0.097337 0.190621 0.094305 -9.741306 -46.473121 4.093527 28.356775 65.196989 33.847323 -12.997230 31.188920 -5.947457 0.081737 -13.632358 -7.514670
-14.674366 57.335044 77.167890 174.710661 -31.812236 -0.869221 4.133274 20.121061 5.596040 0.432134 2.723181 0.464159 0.717247 4.442531 0.768883 3.284021 17.555589 3.469674 0.211153 8.418337 -2.071565 1.425416 -20.122723 -4.177144 0.962175 -0.888611 -0.810932 -1.038282 -24.876174 -10.991759 170.709698 -47.598969 -165.440166 9.265951 -17.674344 -53.334539 -9.076834 -1.919824 -1.508314 37.908437 -16.542032 -1.914449 -175.329087 -42.538092 176.147938 -3.603516 -21.336915 35.420358 9.302818 -39.972819 -2.939997 0.152589 65.024004 3.363996 5.569897 7.855360 3.947645 -0.075069 0.191187 0.070150 -9.678937 -46.501054 4.022891 28.424257 65.170701 33.863459 -13.022885 31.220057 -5.855486 0.052235 -13.675905 -7.522649
-14.701263 57.334161 77.156565 174.853604 -31.797984 -0.882445 4.105460 20.121197 5.561571 0.435630 2.721250 0.462438 0.722917 4.439547 0.766271 3.306760 17.548813 3.462523 0.168383 8.307364 -2.054513 1.337944 -20.330959 -4.127231 0.894883 -0.840919 -0.803218 -1.385158 -24.783288 -10.944082 170.389396 -46.914132 -165.348710 9.317112 -17.602754 -53.303732 -9.012076 -1.859412 -1.453400 38.776810 -16.462508 -1.791938 -175.343779 -42.096623 176.245573 -3.603252 -21.325990 35.405538 9.321266 -39.972251 -3.064843 0.162453 65.062873 3.276834 6.205135 7.745205 4.135795 -0.062677 0.193077 0.068989 -9.695895 -46.529003 3.936108 28.491636 65.143075 33.887282 -13.058102 31.219531 -5.779752 0.021931 -13.691774 -7.523492
-14.712866 57.331248 77.149125 174.972548 -31.764932 -0.975117 4.131582 20.096776 5.622356 0.439442 2.719693 0.460757 0.729191 4.437053 0.763654 3.331570 17.542727 3.455536 0.123435 8.183481 -2.036361 1.245946 -20.563320 -4.074442 0.822126 -0.798345 -0.793418 -1.774262 -24.682090 -10.893197 170.093406 -46.164145 -165.261571 9.390803 -17.531382 -53.295290 -8.937850 -1.808347 -1.393730 39.631868 -16.393107 -1.677321 -175.373424 -41.640136 176.354096 -3.600241 -21.319844 35.397998 9.284381 -40.002808 -3.021656 0.070323 65.087348 3.121143 6.510183 7.674463 4.248636 -0.063090 0.193744 0.072802 -9.724403 -46.571657 3.990551 28.345899 65.172683 33.762891 -13.225445 31.205230 -5.867257 0.106404 -13.726977 -7.461676
-14.728204 57.328104 77.140356 175.068081 -31.736450 -1.031642 4.173733 20.081745 5.657302 0.444062 2.719212 0.459155 0.736760 4.436217 0.761100 3.360982 17.539147 3.448647 0.076328 8.039546 -2.016576 1.149480 -20.832964 -4.017847 0.742053 -0.764786 -0.780775 -2.211678 -24.574121 -10.837472 169.829196 -45.348838 -165.184226 9.496050 -17.471184 -53.313836 -8.859262 -1.770591 -1.326393 40.459864 -16.330709 -1.570801 -175.420413 -41.165356 176.478524 -3.594147 -21.321673 35.398904 9.287405 -40.034560 -3.001139 -0.041521 65.128712 2.961423 6.653418 7.609759 4.326602 -0.066748 0.193791 0.073230 -9.756805 -46.610517 4.019120 28.286161 65.187568 33.701793 -13.353023 31.204838 -5.922890 0.153761 -13.769474 -7.416161
-14.754917 57.325172 77.128738 175.149006 -31.718366 -1.010491 4.208235 20.086374 5.619163 0.449608 2.719895 0.457655 0.745813 4.437188 0.758677 3.395764 17.538039 3.442191 0.027483 7.873513 -1.995180 1.049342 -21.143671 -3.957639 0.654592 -0.739303 -0.766406 -2.693938 -24.463438 -10.776475 169.595096 -44.473963 -165.115732 9.637973 -17.436538 -53.361566 -8.780878 -1.746482 -1.250643 41.258240 -16.268705 -1.474640 -175.489780 -40.674635 176.614191 -3.585312 -21.335874 35.410432 9.317842 -40.059703 -3.059373 -0.078626 65.198280 2.860816 6.683673 7.538920 4.391924 -0.075082 0.197151 0.070411 -9.729101 -46.648951 3.960177 28.420946 65.164167 33.758796 -13.460778 31.210621 -5.814265 0.145139 -13.815313 -7.444321
